<svg xmlns="http://www.w3.org/2000/svg" viewBox="0 0 64 64"><path d="M54.08 4.108c-12.8-6.433-24.275 1.924-24.275 1.924C28.425.37 20.702-.18 18.108.04 15.516.26 5.97 1.742 1.778 12.794c-4.193 11.052-.166 17.155 3.807 21.94s13.628 5.387 13.793 5.443c.166.055-1.214 7.313-1.103 7.588.11.275 3.035.825 3.035.825l.33 13.197s2.54.385 2.704-.33c.166-.715-.33-13.196-.33-13.196s1.875-.11 2.15-1.264c.277-1.155-2.923-7.203-2.923-7.203l1.987-.22s1.986 1.98 3.807 3.52c1.82 1.54 5.02 3.188 5.02 3.188s-2.537 5.005-2.537 5.554c0 .55 2.814 1.375 2.814 1.375s.498 10.006.498 10.446 2.372.495 2.703-.055c.332-.55-.66-9.84-.66-9.84s2.868.55 3.475.11c.607-.44.166-5.83.166-5.83 12.03.99 21.242-9.73 22.4-13.525 1.157-3.795 3.97-23.974-8.83-30.407zm-38.8 32.44c-5.006-1.277-9.97-4.99-11.627-10.39C1.998 20.753 3.82 12.96 7.42 8.67c3.6-4.288 5.627-4.7 8.44-5.484 1.878-.523 6.662-.495 8.69.495 2.028.99 3.352 2.93 3.435 3.547.083.62-.745 1.567-.745 1.567S23.723 7.02 23.392 7.02c-.33 0-.87.62-.662.908s3.27 1.815 3.228 1.98c-.04.164-.828 1.195-1.035 1.195-.207 0-2.98-1.815-3.31-1.815-.33 0-.786.495-.62.907.165.412 3.102 2.103 3.102 2.103s-.29 1.072-.745 1.03c-.455-.04-2.607-1.772-2.938-1.772s-.745.784-.662.948c.083.165 2.814 2.062 2.772 2.268s-.248.99-.455.99-2.607-1.567-2.897-1.567-.786.907-.538 1.155c.248.247 2.73 1.526 2.73 1.526s.29 1.072-.29 1.072c-.578 0-2.937-1.36-3.144-1.278-.207.082-.62.99-.414 1.155.207.165 3.186 1.443 3.186 1.608 0 .165-.248 1.938-.414 1.856-.166-.083-2.483-1.444-2.648-1.362-.166.082-.455.577-.124 1.155.33.577 2.566 1.485 2.607 1.69s-.29 1.362-.29 1.362l-2.4-1.03s-.454 1.112-.123 1.277 2.483 1.072 2.607 1.196c.124.124.124 1.567-.083 1.526-.206-.04-2.565-.784-2.565-.784s-.372 1.03.04 1.237c.415.206 2.484 1.155 2.608 1.237.124.082.703 2.598.538 2.598s-2.813-1.485-2.937-1.485c-.124 0-.538.825-.207 1.113.33.29 3.93 2.103 4.055 2.35.125.248.167 1.362.167 1.362s-3.31-1.443-3.517-1.443c-.207 0-.87.66-.207 1.112.662.454 4.138 2.268 4.138 2.268s-1.652 1.157-6.66-.12zm7.49 9.032c-.247.206-1.654.577-1.654.165 0-.412.33-1.608.538-1.897.226-.317 1.365 1.526 1.117 1.732zm14.94 5.526c-.332 0-2.69-.29-2.815-.742-.124-.454.952-2.557 1.117-2.846.062-.107.993.082 1.283.412.29.33.745 3.176.414 3.176zm23.654-23.19c-.276-.165-5.24-4.894-5.628-4.894-.386 0-.662.99-.662.99s6.18 5.443 6.18 5.65c0 .206-.58 2.474-.704 2.392-.124-.082-5.793-5.856-5.917-5.856-.124 0-.91 1.03-.662 1.278.25.248 6.208 5.815 6.167 6.227-.04.412-.91 2.186-1.2 1.98s-5.545-5.65-5.876-5.692-.95 1.032-.827 1.156c.124.124 6.124 5.567 5.793 6.103-.33.535-.87 1.607-1.2 1.4-.33-.205-4.924-4.99-5.214-5.07-.29-.083-1.324.453-1.24.783s5.585 5.32 5.378 5.526c-.207.205-1.82 1.32-2.07 1.112-.247-.206-4.633-4.825-4.84-4.825-.207 0-1.117.866-.87 1.113.25.247 4.884 4.95 4.76 5.03-.124.083-1.862.99-1.986.908s-4.262-4.99-4.47-5.03c-.206-.042-1.2.205-1.034.618.166.412 4.262 5.36 4.014 5.36-.248 0-1.945.372-2.11.29s-4.262-5.485-4.51-5.567c-.248-.083-1.076.123-1.076.453s4.386 5.526 3.93 5.608-1.902.207-2.275-.08c-.372-.29-3.352-4.99-3.724-5.073-.373-.082-1.242.247-1.242.495s3.103 4.7 2.814 4.7c-.29 0-1.448.33-1.655-.04-.207-.37-2.234-3.217-2.565-3.217-.33 0-.87.62-.662 1.072.207.454 1.2 2.062.993 2.062-.207 0-4.138-1.486-7.324-4.33-3.187-2.846-7.532-8.372-7.242-15.878.29-7.505 4.138-11.74 5.38-13.25 2.733-3.33 7.006-7.644 15.668-6.984 8.662.66 10.538 3.024 11.972 4.18C57.063 9.77 58.166 12.85 58 12.795c-.166-.055-1.6-1.045-1.6-1.045s-.717.99-.497 1.21c.22.22 3.31 2.255 3.53 2.64.222.385.83 1.485.663 1.54-.166.055-2.538-1.65-2.76-1.65-.22 0-.827.88-.44 1.21.386.33 3.917 2.86 4.083 3.134s.22 2.034.22 2.034l-4.248-2.75s-.938.66-.552.99c.386.33 5.02 3.355 5.186 3.63.164.274.054 4.343-.222 4.178zM13.584 8.094c-.496-.082-1.778.165-4.51 3.01-2.73 2.846-3.086 5.367-3.02 5.732.166.907 2.152 1.237 2.44.99.29-.247.58-1.65 1.987-3.794s3.932-3.547 3.973-3.918c.042-.37-.372-1.937-.868-2.02zm26.318.495c-.538-.083-3.6.618-6.58 2.927-2.978 2.31-4.446 6.493-4.344 6.763.124.33 1.49 1.32 2.028.866.538-.454 1.035-1.443 3.93-4.907s5.173-2.68 5.546-3.094c.372-.413-.042-2.475-.58-2.557z"/></svg>